<svg xmlns="http://www.w3.org/2000/svg" viewBox="0 0 64 80" x="0px" y="0px"><title>profile</title><g><path d="M55,2H11A3,3,0,0,0,8,5V59a3,3,0,0,0,3,3H53a3,3,0,0,0,3-3V3A1,1,0,0,0,55,2ZM54,8.586,49.414,4H54ZM48,5.414,52.586,10H48ZM53,60H11a1,1,0,0,1-1-1V5a1,1,0,0,1,1-1H46v7a1,1,0,0,0,1,1h7V59A1,1,0,0,1,53,60Z"/><path d="M32,16a4,4,0,0,0,4-4V10a4,4,0,0,0-8,0v2A4,4,0,0,0,32,16Zm-2-6a2,2,0,0,1,4,0v2a2,2,0,0,1-4,0Z"/><path d="M28,30h8a3,3,0,0,0,3-3V19a3,3,0,0,0-3-3H34a1,1,0,0,0-.707.293L32,17.586l-1.293-1.293A1,1,0,0,0,30,16H28a3,3,0,0,0-3,3v8A3,3,0,0,0,28,30Zm-1-3V20.618l2,1V28H28A1,1,0,0,1,27,27Zm9,1H35V21.618l2-1V27A1,1,0,0,1,36,28ZM28,18h1.586l1.707,1.707a1,1,0,0,0,1.414,0L34.414,18H36a.987.987,0,0,1,.826.469l-3.273,1.636A1,1,0,0,0,33,21v7H31V21a1,1,0,0,0-.553-.895l-3.273-1.636A.987.987,0,0,1,28,18Z"/><path d="M49,32H15a3,3,0,0,0-3,3V55a3,3,0,0,0,3,3H49a3,3,0,0,0,3-3V35A3,3,0,0,0,49,32Zm1,23a1,1,0,0,1-1,1H15a1,1,0,0,1-1-1V35a1,1,0,0,1,1-1H49a1,1,0,0,1,1,1Z"/><rect x="16" y="36" width="2" height="2"/><rect x="16" y="40" width="2" height="2"/><rect x="20" y="36" width="28" height="2"/><rect x="20" y="40" width="28" height="2"/><rect x="16" y="44" width="2" height="2"/><rect x="16" y="48" width="2" height="2"/><rect x="20" y="44" width="28" height="2"/><rect x="20" y="48" width="28" height="2"/><rect x="16" y="52" width="2" height="2"/><rect x="20" y="52" width="28" height="2"/><rect x="12" y="6" width="2" height="2"/><rect x="15" y="6" width="5" height="2"/><rect x="12" y="10" width="8" height="2"/><rect x="44" y="24" width="2" height="2"/><rect x="47" y="24" width="5" height="2"/><rect x="44" y="28" width="8" height="2"/></g><text x="0" y="79" fill="#000000" font-size="5px" font-weight="bold" font-family="'Helvetica Neue', Helvetica, Arial-Unicode, Arial, Sans-serif">Created by Phonlaphat Thongsriphong</text><text x="0" y="84" fill="#000000" font-size="5px" font-weight="bold" font-family="'Helvetica Neue', Helvetica, Arial-Unicode, Arial, Sans-serif">from the Noun Project</text></svg>