<svg xmlns="http://www.w3.org/2000/svg" xmlns:xlink="http://www.w3.org/1999/xlink" version="1.1" x="0px" y="0px" viewBox="0 0 100 125" enable-background="new 0 0 100 100" xml:space="preserve"><g><path d="M5.1063104,21.9709034h10.4908447c0.088254,0,0.1604614,0.0722084,0.1604614,0.1604614v68.6680908   c0,2.4790039,1.9856567,4.4891357,4.4345093,4.4891357h62.5689697c2.4487915,0,4.4345093-2.0101318,4.4345093-4.4891357V25.1421089   c0-0.3463898-0.4295883-0.5074387-0.6573029-0.2464142l-4.865799,5.5776539   c-0.0595551,0.0682755-0.0923767,0.1558113-0.0923767,0.2464142V86.963028c0,1.4584961-1.1679688,2.6408691-2.6087646,2.6408691   H24.2176991c-1.4400024,0-2.6079712-1.182373-2.6079712-2.6408691v-69.107666c0-2.2688465-0.6643696-4.425621-1.8455582-6.2797737   c-0.0687675-0.1079473,0.0046787-0.245883,0.1326675-0.245883l43.7083282,0.0000219   c0.0779228,0,0.1537056-0.0247879,0.2167053-0.0706511c2.3403931-1.7038088,4.7568741-3.2806106,7.2361145-4.7227283   c0.331749-0.1929708,0.1990433-0.6949668-0.1847458-0.6949668l-58.821373,0.0000038   c-5.7008662,0-10.3379517,4.5323486-10.3379517,10.104187v5.4265347c0,0.3270645,0.2651385,0.5922031,0.5922034,0.5922031   h2.7965908L5.1063104,21.9709034z"/><path d="M97.0497284,4.8095264C78.472641,3.5160084,59.2538948,15.0947437,48.1996346,34.6532745H31.3813343   v4.0892944h14.6879902c-0.7692261,1.6009521-1.4902344,3.2438965-2.1496582,4.9348145   c-0.4139404,1.0614014-0.7987671,2.1258545-1.1569214,3.1919556H31.3813343v4.0892944h10.1589375   c-0.6940918,2.5755005-1.2269287,5.1513672-1.6099854,7.715332h-8.5489521v4.0892334h8.054018   c-0.1950684,2.2428589-0.2805786,4.4697266-0.2458496,6.6678467c-1.9142456,3.2722778-3.6834106,6.7313232-5.1911621,10.3846436   c-0.319519,0.774353,0.0415039,1.6643066,0.8063965,1.987854c0.1890869,0.0799561,0.3851318,0.1177979,0.5780029,0.1177979   c0.5874023,0,1.1450806-0.3511963,1.3856201-0.9341431c1.6142578-3.911377,3.5500488-7.6074219,5.6505127-11.0922241   l6.2468262-7.1317749h21.1516685v-4.0892334H52.2474861l6.7579956-7.715332h10.8118858V46.869339h-7.2300377l6.3915977-7.2970581   c0.2909546-0.3321533,0.4006958-0.7885132,0.2931519-1.2189331l-1.788147-7.1553936   c-0.265564-1.0625,0.7714844-1.9815063,1.7766724-1.5744629l5.3031616,2.1474609   c0.5133667,0.2078247,1.1002808,0.071167,1.4723511-0.3428955L97.9391937,7.0514698   C98.6847382,6.2217579,98.155014,4.8864918,97.0497284,4.8095264z"/><path d="M38.6456184,82.0837555c0.2512817,0,0.4958496-0.1303711,0.6308594-0.3634644   c0.4367676-0.7543335,0.8881226-1.5341797,1.524353-2.0285034c0.4709473-0.3659668,1.2229614-0.612854,1.7605591-0.2885742   c0.3010254,0.1813965,0.5479126,0.5368042,0.8093872,0.9129028c0.1157837,0.166626,0.2319336,0.333313,0.3546143,0.491272   c0.7366333,0.947876,1.7221069,1.3539429,2.571106,1.0603638c0.6974487-0.2411499,1.0612793-0.8401489,1.3535156-1.3214722   c0.151062-0.2487793,0.2937012-0.4835815,0.4517212-0.6315918c0.2265625-0.211792,0.5813599-0.2845459,0.8626099-0.1776123   c0.2943115,0.1121216,0.5316162,0.4235229,0.5775146,0.7572021c0.0545044,0.3985596,0.4250488,0.6779175,0.8201294,0.6224365   c0.3983765-0.0545654,0.6771851-0.421814,0.6224365-0.8201904c-0.1184692-0.8641357-0.7080688-1.6178589-1.5018921-1.9202271   c-0.8061523-0.3076172-1.7390137-0.1207886-2.3756714,0.4751587c-0.3040771,0.2844849-0.5153198,0.6322021-0.7015381,0.9389648   c-0.1971436,0.3248901-0.3833618,0.6316528-0.5847778,0.7011719c-0.2261353,0.0775757-0.6241455-0.1647339-0.9451294-0.5776978   c-0.1071777-0.1376343-0.2077637-0.2833862-0.30896-0.4287109c-0.3213501-0.4627075-0.68573-0.9869995-1.253479-1.3291016   c-0.9798584-0.5903931-2.3487549-0.4354248-3.4056396,0.3858643c-0.8604736,0.6687012-1.40802,1.6144409-1.8910522,2.4487915   c-0.201416,0.3480835-0.0827637,0.7935181,0.2653198,0.994873C38.3964119,82.0520782,38.5219612,82.0837555,38.6456184,82.0837555z   "/></g><text x="0" y="115" fill="#000000" font-size="5px" font-weight="bold" font-family="'Helvetica Neue', Helvetica, Arial-Unicode, Arial, Sans-serif">Created by Nubaia Karim Barsha</text><text x="0" y="120" fill="#000000" font-size="5px" font-weight="bold" font-family="'Helvetica Neue', Helvetica, Arial-Unicode, Arial, Sans-serif">from the Noun Project</text></svg>